<?xml version="1.0" encoding="UTF-8"?>
<svg version="1.1" xmlns="http://www.w3.org/2000/svg" width="512" height="512">
<path d="M0 0 C1.24027954 -0.00686325 2.48055908 -0.0137265 3.75842285 -0.02079773 C7.13021528 -0.03586923 10.50145052 -0.03758714 13.87323475 -0.03185534 C16.69652262 -0.02874739 19.5197613 -0.03487298 22.34304214 -0.04089409 C29.00282566 -0.05489166 35.66248073 -0.05341518 42.32226562 -0.04199219 C49.18098353 -0.03048767 56.03931147 -0.04463626 62.89797807 -0.07138866 C68.80398496 -0.09355808 74.70986952 -0.1001811 80.61591506 -0.09431225 C84.13609033 -0.09094777 87.65601506 -0.09332477 91.17615509 -0.11056328 C95.09675892 -0.12893006 99.01688306 -0.11483256 102.9375 -0.09765625 C104.09711243 -0.10732422 105.25672485 -0.11699219 106.45147705 -0.12695312 C112.50455936 -0.07136255 116.67649334 -0.01861361 121.20996094 4.40405273 C122.87120918 6.66210966 124.39868879 8.97524583 125.90813637 11.33759499 C136.03728294 26.88516964 150.29077182 44.13680907 169.13918304 48.76583099 C196.43111708 54.29200404 225.84867803 51.82751814 253.47812235 50.72041571 C265.96150891 50.22773711 278.44768857 50.00862947 290.93847656 49.79663086 C295.33841678 49.72128642 299.73832562 49.64448656 304.13819885 49.56532288 C305.20413129 49.5462381 306.27006374 49.52715332 307.36829716 49.50749022 C314.65576268 49.36917866 321.93813813 49.15168426 329.22251892 48.90135193 C332.11197192 48.81010984 335.00147305 48.72061625 337.89100266 48.63183594 C339.68428344 48.57204634 341.47732864 48.50458016 343.26999474 48.42856026 C359.36374437 47.7469175 370.5710863 50.43609479 383.17480469 61.06030273 C391.1514179 68.46092418 396.41249918 78.35030001 397.48961341 89.22832847 C397.59708059 92.35949331 397.61477658 95.47832277 397.59764099 98.61129761 C397.6057193 100.40000973 397.6057193 100.40000973 397.6139608 102.22485745 C397.62572967 105.50846491 397.62419871 108.79174347 397.61679399 112.07535338 C397.61204254 115.62692942 397.62458957 119.17845228 397.6348114 122.73001099 C397.65196636 129.67767633 397.65284628 136.6252511 397.6475985 143.57293211 C397.64354929 149.22286702 397.64500926 154.87277525 397.65034676 160.52270889 C397.65109518 161.3282948 397.6518436 162.13388071 397.6526147 162.96387831 C397.65414625 164.6006782 397.6556846 166.23747809 397.65722967 167.87427796 C397.67094283 183.20776704 397.66552542 198.54120503 397.65404446 213.87469293 C397.64411396 227.88543058 397.65705166 241.89603613 397.68097865 255.90675341 C397.7053939 270.31253975 397.71497152 284.71826463 397.70832592 299.12407124 C397.70483901 307.20399831 397.7070308 315.28382383 397.72457695 323.3637352 C397.73932935 330.24213132 397.73989489 337.12035438 397.72250604 343.99874721 C397.7140184 347.50412296 397.71179107 351.00918996 397.72715759 354.51454926 C397.74038647 358.32426875 397.72880137 362.13315635 397.71116638 365.94284058 C397.72077139 367.03722218 397.73037639 368.13160379 397.74027246 369.25914848 C397.60745057 383.26467781 392.3187787 393.99947203 382.89746094 404.15405273 C371.53132955 414.91128422 359.08767956 416.85902122 343.96560669 416.79173279 C342.43109876 416.79591109 340.89659392 416.80139133 339.36209476 416.8080526 C335.166408 416.82246083 330.97091845 416.81827701 326.77522111 416.81088579 C322.24204575 416.80614493 317.70891249 416.81867208 313.17575073 416.8289032 C304.3030134 416.84607863 295.43034693 416.8469338 286.55759729 416.84169029 C279.34397231 416.83764498 272.13036822 416.83909645 264.91674423 416.84443855 C263.37532202 416.84556119 263.37532202 416.84556119 261.80275997 416.8467065 C259.71500008 416.84823801 257.62724019 416.84977636 255.53948031 416.85132147 C235.97118514 416.865042 216.40292998 416.85961198 196.83463572 416.84813625 C178.94399323 416.83820462 161.05345417 416.85114415 143.16282763 416.87507045 C124.7794006 416.89947 106.39602173 416.90906719 88.01257885 416.90241772 C77.69700606 416.89892737 67.38151282 416.9011454 57.0659523 416.91866875 C48.2844832 416.93340142 39.50314964 416.93401221 30.72168316 416.91659784 C26.24420298 416.90809423 21.76696484 416.90592263 17.28949738 416.92124939 C13.18487226 416.93512556 9.08069585 416.93029601 4.9760965 416.91101015 C3.49705435 416.90725878 2.01797601 416.9101471 0.53896619 416.9206218 C-15.36148516 417.02516004 -26.85974879 412.92840848 -38.54003906 402.09155273 C-48.92271167 391.12118168 -51.24619785 379.02282528 -51.17771912 364.37454224 C-51.18189853 362.97202755 -51.18737937 361.56951625 -51.19403893 360.16701114 C-51.20843271 356.33616871 -51.20426795 352.50554254 -51.19687212 348.67468858 C-51.19212763 344.53415322 -51.2046616 340.39366379 -51.21488953 336.25314331 C-51.23205793 328.15043509 -51.23292159 320.04780448 -51.22767662 311.9450828 C-51.22362997 305.35693396 -51.22508436 298.768808 -51.23042488 292.18066025 C-51.2311733 291.241857 -51.23192173 290.30305375 -51.23269283 289.33580192 C-51.23422435 287.42842603 -51.2357627 285.52105015 -51.23730779 283.61367427 C-51.2510258 265.73930175 -51.24560011 247.86497304 -51.23412258 229.99060152 C-51.22419134 213.6519216 -51.23713024 197.31335494 -51.26105677 180.97469248 C-51.28546171 164.1823219 -51.29505219 147.39000403 -51.28840405 130.59761608 C-51.28491488 121.17630206 -51.28712391 111.75507514 -51.30465508 102.33377457 C-51.31939451 94.31353538 -51.31998977 86.29344461 -51.30258416 78.27320828 C-51.29408604 74.18457121 -51.29189535 70.09619907 -51.30723572 66.00757599 C-51.32112855 62.25821729 -51.31626141 58.50934933 -51.29699648 54.76001869 C-51.29148753 52.77509367 -51.30546958 50.79014338 -51.32035059 48.8052665 C-51.20089349 34.17384778 -46.37169677 23.31827461 -36.47753906 12.65405273 C-25.9388899 2.67997407 -14.1249272 -0.05521893 0 0 Z M-14.72753906 38.15405273 C-19.6470258 45.90597123 -19.10115788 53.84860337 -19.09082031 62.77124023 C-19.09471437 64.17457199 -19.09905049 65.57790259 -19.10380554 66.98123169 C-19.11124128 69.91469146 -19.11099602 72.84803083 -19.10571289 75.78149414 C-19.09992485 79.51914365 -19.11684557 83.25629655 -19.14005756 86.99386406 C-19.15487349 89.8902977 -19.15565595 92.78661393 -19.15254784 95.68307877 C-19.15305721 97.06002917 -19.15822199 98.43698682 -19.16835976 99.81389999 C-19.4728798 112.08845296 -19.4728798 112.08845296 -14.51509094 122.97946167 C-7.25336476 129.68507825 2.15004853 128.69185765 11.35446167 128.66474915 C12.80602055 128.6677715 14.25757783 128.6716614 15.70913231 128.67634171 C19.68932286 128.68661971 23.66942332 128.6844404 27.64962125 128.68016112 C31.94556222 128.67769354 36.24148152 128.68670846 40.53741455 128.69419861 C48.95033364 128.70694676 57.36322082 128.70873915 65.77614795 128.70639835 C72.61467603 128.70461515 79.45319442 128.70636487 86.29172134 128.71062279 C87.26510156 128.71121798 88.23848179 128.71181317 89.24135838 128.71242639 C91.21880006 128.71363815 93.19624174 128.71485228 95.17368342 128.71606877 C113.71750034 128.72694477 132.26129908 128.72478154 150.80511703 128.71868392 C167.76678026 128.71351479 184.72838607 128.72477001 201.69003795 128.74378214 C219.10944961 128.76315757 236.5288341 128.77141705 253.94825661 128.76765889 C263.7266511 128.76574639 273.50499671 128.76823918 283.28338242 128.78237343 C291.60788338 128.79428443 299.93230538 128.79569526 308.25680743 128.78358326 C312.50298111 128.7776926 316.74901033 128.77660031 320.99517441 128.78858566 C324.88504757 128.79943763 328.77465551 128.79634937 332.66451623 128.78232398 C334.06889915 128.77967515 335.47330281 128.78204945 336.87766539 128.79005984 C349.01881644 129.05820415 349.01881644 129.05820415 359.78628528 124.12914735 C364.86661283 118.62363909 365.58309927 111.71989269 365.52246094 104.52905273 C365.51682129 103.82868896 365.51118164 103.1283252 365.50537109 102.40673828 C365.3621245 96.28330084 364.89744432 90.6941839 360.92089844 85.82592773 C355.26778405 80.5658106 348.24869395 80.10650353 340.89170837 80.15249634 C339.67627195 80.14804113 339.67627195 80.14804113 338.43628126 80.14349592 C335.7356867 80.13588997 333.03531181 80.14233584 330.3347168 80.14868164 C328.39270379 80.14593021 326.45069191 80.14224939 324.50868225 80.13771057 C320.33392248 80.12961156 316.15921624 80.12742681 311.98444939 80.12965775 C305.38302621 80.13249389 298.78170978 80.11812848 292.18031311 80.10067749 C273.41115917 80.05367647 254.64201292 80.02970289 235.87280273 80.02319336 C225.50125234 80.0194445 215.12982313 80.00143191 204.75832468 79.968099 C198.19585928 79.94787106 191.63370609 79.94552121 185.07122219 79.95637918 C180.99008469 79.95898438 176.90912946 79.94499206 172.82803917 79.92629814 C170.9358054 79.92097155 169.04353816 79.9224809 167.1513176 79.93133354 C164.56751847 79.9424469 161.98495357 79.92903306 159.40122986 79.90957642 C158.27899604 79.9232634 158.27899604 79.9232634 157.13409084 79.93722689 C152.0328986 79.86250806 149.1501492 78.59831041 145.20996094 75.40405273 C143.56254578 73.29058838 143.56254578 73.29058838 142.24780273 71.00268555 C132.41299346 54.90370796 118.79158133 36.46397823 99.40947723 31.71836853 C82.39620684 28.57100263 64.80582396 29.0686004 47.58496094 29.52905273 C46.38410732 29.55949173 45.18325371 29.58993073 43.94601059 29.62129211 C31.68088485 29.95552654 19.42686879 30.50483404 7.18798828 31.38110352 C5.86499993 31.46609289 5.86499993 31.46609289 4.51528454 31.55279922 C-2.22977233 32.08984905 -9.94870914 32.89972382 -14.72753906 38.15405273 Z M196.20996094 195.40405273 C190.99205009 200.77880132 188.00450678 207.20967095 184.67553711 213.86010742 C184.03503299 215.12585273 183.39389216 216.39127603 182.75216675 217.65640259 C181.01938227 221.07827211 179.29700139 224.50527217 177.57760024 227.93388271 C176.50125558 230.07926457 175.42284512 232.22359514 174.34374428 234.36759186 C170.57447324 241.85721852 166.81432519 249.35135159 163.06176758 256.84936523 C159.57117094 263.82328587 156.05969469 270.78641496 152.53856486 277.7449615 C149.50937988 283.73383147 146.49572574 289.73035047 143.49375135 295.73290563 C141.70356501 299.31169638 139.90723053 302.88705393 138.09486961 306.45467377 C136.39030909 309.81126875 134.70535905 313.17701403 133.03458786 316.55054855 C132.12955985 318.3659351 131.20482404 320.17145548 130.27940369 321.97653198 C127.07532959 328.50061038 124.90914744 334.07246315 126.20996094 341.40405273 C128.90160449 346.99438934 132.81224412 350.02659997 138.52246094 352.34155273 C142.72426112 352.43926902 146.54144234 351.45817188 150.20996094 349.40405273 C155.42787178 344.02930415 158.4154151 337.59843452 161.74438477 330.94799805 C162.38488889 329.68225274 163.02602971 328.41682944 163.66775513 327.15170288 C165.40053961 323.72983336 167.12292049 320.3028333 168.84232163 316.87422276 C169.91866629 314.72884089 170.99707675 312.58451033 172.0761776 310.44051361 C175.84544863 302.95088695 179.60559668 295.45675387 183.3581543 287.95874023 C186.84875094 280.9848196 190.36022719 274.02169051 193.88135701 267.06314397 C196.91054199 261.07427399 199.92419614 255.077755 202.92617053 249.07519984 C204.71635686 245.49640909 206.51269134 241.92105154 208.32505226 238.3534317 C210.02961279 234.99683672 211.71456283 231.63109144 213.38533401 228.25755692 C214.29036203 226.44217037 215.21509783 224.63664999 216.14051819 222.83157349 C219.34459228 216.30749509 221.51077444 210.73564232 220.20996094 203.40405273 C217.51831738 197.81371612 213.60767776 194.7815055 207.89746094 192.46655273 C203.69566076 192.36883645 199.87847953 193.34993359 196.20996094 195.40405273 Z M68.97070312 218.38452148 C68.24268997 219.10727768 68.24268997 219.10727768 67.49996948 219.84463501 C65.91389282 221.42198403 64.33515666 223.00644592 62.75683594 224.59155273 C61.64948205 225.69755784 60.54183154 226.80326603 59.43389893 227.90869141 C57.12096289 230.21868872 54.81165823 232.5322398 52.50488281 234.84838867 C49.55043243 237.81425959 46.58705725 240.77102487 43.62092209 243.72520447 C41.33534529 246.00355168 39.05455646 248.28664403 36.77518463 250.57119751 C35.68422407 251.66349014 34.59178165 252.75430482 33.49782562 253.84359741 C31.97086817 255.36546869 30.45048 256.89361641 28.93164062 258.42358398 C28.06593445 259.29088135 27.20022827 260.15817871 26.30828857 261.05175781 C23.05344752 264.70054266 21.91080784 267.40968151 21.83496094 272.27905273 C21.80660156 273.10147461 21.77824219 273.92389648 21.74902344 274.77124023 C22.75210952 280.50073194 27.211388 284.65696871 31.19042969 288.64331055 C31.91318588 289.3713237 31.91318588 289.3713237 32.65054321 290.11404419 C34.22789224 291.70012086 35.81235412 293.27885701 37.39746094 294.85717773 C38.50346604 295.96453162 39.60917424 297.07218213 40.71459961 298.18011475 C43.02459692 300.49305079 45.338148 302.80235544 47.65429688 305.10913086 C50.62016779 308.06358125 53.57693308 311.02695643 56.53111267 313.99309158 C58.80945989 316.27866838 61.09255223 318.55945721 63.37710571 320.83882904 C64.46939834 321.9297896 65.56021302 323.02223202 66.64950562 324.11618805 C68.17137689 325.6431455 69.69952461 327.16353367 71.22949219 328.68237305 C72.09678955 329.54807922 72.96408691 330.4137854 73.85766602 331.3057251 C78.09611279 335.08656479 81.33411927 335.86820045 86.89746094 335.71264648 C91.38158123 335.11425881 94.55964455 333.28873358 97.53027344 329.89624023 C100.13807556 325.97541886 100.67301178 322.35871421 100.74121094 317.71264648 C99.14780715 310.78836974 92.79538574 305.72886171 87.94433594 300.94311523 C86.7542392 299.75726334 86.7542392 299.75726334 85.5401001 298.54745483 C83.01806333 296.03656597 80.48914355 293.5327415 77.95996094 291.02905273 C76.24335532 289.32248385 74.52720435 287.61545751 72.81152344 285.90795898 C68.61625354 281.73467796 64.4153185 277.56716705 60.20996094 273.40405273 C61.60821799 270.23787442 63.24820586 268.1295081 65.70996094 265.70874023 C66.42410156 265.00120605 67.13824219 264.29367187 67.87402344 263.56469727 C68.64488281 262.81043457 69.41574219 262.05617188 70.20996094 261.27905273 C71.00144531 260.4951416 71.79292969 259.71123047 72.60839844 258.90356445 C75.99420233 255.55047042 79.39169157 252.20930418 82.78808594 248.86694336 C85.26609418 246.42504107 87.73814347 243.97721885 90.20996094 241.52905273 C90.98082031 240.77479004 91.75167969 240.02052734 92.54589844 239.2434082 C93.26003906 238.53587402 93.97417969 237.82833984 94.70996094 237.09936523 C95.65355469 236.17148193 95.65355469 236.17148193 96.61621094 235.22485352 C100.0810118 231.26644592 100.66184592 227.84132147 100.51855469 222.71655273 C99.92016701 218.23243245 98.09464179 215.05436912 94.70214844 212.08374023 C90.78132707 209.47593811 87.16462242 208.94100189 82.51855469 208.87280273 C76.99976534 210.14277795 72.86537924 214.49697765 68.97070312 218.38452148 Z M248.88964844 214.91186523 C246.28184632 218.83268661 245.7469101 222.44939125 245.67871094 227.09545898 C247.27211472 234.01973572 253.62453613 239.07924376 258.47558594 243.86499023 C259.26898376 244.65555817 260.06238159 245.4461261 260.87982178 246.26065063 C263.40185855 248.77153949 265.93077832 251.27536397 268.45996094 253.77905273 C270.17656656 255.48562162 271.89271753 257.19264795 273.60839844 258.90014648 C277.80366833 263.07342751 282.00460338 267.24093841 286.20996094 271.40405273 C284.81170388 274.57023105 283.17171602 276.67859737 280.70996094 279.09936523 C279.99582031 279.80689941 279.28167969 280.51443359 278.54589844 281.2434082 C277.77503906 281.9976709 277.00417969 282.75193359 276.20996094 283.52905273 C275.41847656 284.31296387 274.62699219 285.096875 273.81152344 285.90454102 C270.42571955 289.25763505 267.0282303 292.59880129 263.63183594 295.94116211 C261.1538277 298.3830644 258.68177841 300.83088661 256.20996094 303.27905273 C255.43910156 304.03331543 254.66824219 304.78757812 253.87402344 305.56469727 C253.15988281 306.27223145 252.44574219 306.97976563 251.70996094 307.70874023 C250.76636719 308.63662354 250.76636719 308.63662354 249.80371094 309.58325195 C246.33891008 313.54165955 245.75807596 316.966784 245.90136719 322.09155273 C246.49975486 326.57567302 248.32528009 329.75373634 251.71777344 332.72436523 C255.63859481 335.33216736 259.25529946 335.86710358 263.90136719 335.93530273 C269.42015653 334.66532752 273.55454264 330.31112782 277.44921875 326.42358398 C277.93456085 325.94174652 278.41990295 325.45990906 278.91995239 324.96347046 C280.50602906 323.38612144 282.08476521 321.80165955 283.66308594 320.21655273 C284.77043983 319.11054763 285.87809034 318.00483944 286.98602295 316.89941406 C289.29895899 314.58941675 291.60826364 312.27586567 293.91503906 309.9597168 C296.86948945 306.99384588 299.83286463 304.0370806 302.79899979 301.082901 C305.08457659 298.80455378 307.36536541 296.52146144 309.64473724 294.23690796 C310.73569781 293.14461533 311.82814023 292.05380065 312.92209625 290.96450806 C314.44905371 289.44263678 315.96944187 287.91448906 317.48828125 286.38452148 C318.35398743 285.51722412 319.2196936 284.64992676 320.1116333 283.75634766 C323.36647436 280.1075628 324.50911403 277.39842396 324.58496094 272.52905273 C324.61332031 271.70663086 324.64167969 270.88420898 324.67089844 270.03686523 C323.66781235 264.30737353 319.20853388 260.15113676 315.22949219 256.16479492 C314.74765472 255.67945282 314.26581726 255.19411072 313.76937866 254.69406128 C312.19202964 253.10798461 310.60756775 251.52924846 309.02246094 249.95092773 C307.91645583 248.84357384 306.81074764 247.73592334 305.70532227 246.62799072 C303.39532496 244.31505468 301.08177387 242.00575003 298.765625 239.69897461 C295.79975408 236.74452422 292.8429888 233.78114904 289.8888092 230.81501389 C287.61046199 228.52943709 285.32736964 226.24864826 283.04281616 223.96927643 C281.95052354 222.87831587 280.85970885 221.78587344 279.77041626 220.69191742 C278.24854498 219.16495997 276.72039726 217.6445718 275.19042969 216.12573242 C274.32313232 215.26002625 273.45583496 214.39432007 272.56225586 213.50238037 C268.32380908 209.72154068 265.08580261 208.93990502 259.52246094 209.09545898 C255.03834065 209.69384666 251.86027733 211.51937189 248.88964844 214.91186523 Z " fill="#000000" transform="translate(82.7900390625,47.595947265625)"/>
</svg>
